<svg id="svg" version="1.1" xmlns="http://www.w3.org/2000/svg" xmlns:xlink="http://www.w3.org/1999/xlink" width="400" height="400" viewBox="0, 0, 400,400"><g id="svgg"><path id="path0" d="M120.000 64.000 C 120.000 64.635,119.731 64.801,118.700 64.806 C 116.292 64.817,116.362 64.430,116.527 76.831 C 116.722 91.460,116.984 92.999,119.688 95.364 C 122.948 98.216,126.263 98.247,129.362 95.454 C 131.868 93.195,132.087 91.800,132.278 76.900 L 132.433 64.800 130.617 64.800 C 129.067 64.800,128.800 64.683,128.800 64.000 C 128.800 63.248,128.533 63.200,124.400 63.200 C 120.267 63.200,120.000 63.248,120.000 64.000 M143.200 64.000 C 143.200 64.587,142.933 64.800,142.200 64.800 C 141.650 64.800,141.221 64.935,141.247 65.100 C 141.418 66.179,141.108 66.800,140.400 66.800 C 139.497 66.800,139.112 87.752,139.999 88.639 C 140.218 88.858,140.592 90.109,140.830 91.419 C 141.368 94.378,143.992 97.133,146.400 97.264 C 149.380 97.426,150.982 97.118,152.116 96.163 C 152.746 95.634,153.428 95.200,153.631 95.200 C 153.834 95.200,154.000 94.968,154.000 94.685 C 154.000 94.401,154.360 93.463,154.800 92.600 C 155.240 91.737,155.600 90.617,155.600 90.112 C 155.600 89.606,155.960 88.884,156.400 88.507 C 157.159 87.857,157.200 87.327,157.200 78.111 C 157.200 68.667,157.178 68.400,156.400 68.400 C 155.719 68.400,155.600 68.133,155.600 66.600 C 155.600 64.947,155.519 64.800,154.600 64.800 C 153.867 64.800,153.600 64.587,153.600 64.000 C 153.600 63.241,153.333 63.200,148.400 63.200 C 143.467 63.200,143.200 63.241,143.200 64.000 M166.400 64.000 C 166.400 64.587,166.133 64.800,165.400 64.800 C 164.600 64.800,164.400 65.000,164.400 65.800 C 164.400 66.533,164.187 66.800,163.600 66.800 C 162.534 66.800,162.341 86.651,163.388 88.668 C 163.711 89.290,164.082 90.655,164.212 91.700 C 164.342 92.745,164.622 93.600,164.834 93.600 C 165.046 93.600,165.391 94.050,165.600 94.600 C 165.809 95.150,166.198 95.600,166.464 95.600 C 166.731 95.600,167.320 95.945,167.774 96.367 C 169.152 97.646,173.932 97.668,175.200 96.400 C 175.640 95.960,176.165 95.600,176.366 95.600 C 176.956 95.600,178.700 92.175,178.993 90.441 C 179.141 89.564,179.518 88.634,179.831 88.374 C 180.869 87.513,180.651 68.791,179.600 68.516 C 178.883 68.328,178.492 66.751,178.753 65.100 C 178.779 64.935,178.371 64.800,177.847 64.800 C 177.230 64.800,176.819 64.518,176.684 64.000 C 176.489 63.253,176.138 63.200,171.437 63.200 C 166.667 63.200,166.400 63.242,166.400 64.000 M189.200 64.000 C 189.200 64.533,188.933 64.800,188.400 64.800 C 187.813 64.800,187.600 65.067,187.600 65.800 C 187.600 66.533,187.387 66.800,186.800 66.800 C 186.360 66.800,185.985 67.025,185.968 67.300 C 185.662 72.034,186.155 87.885,186.629 88.562 C 186.943 89.011,187.200 89.944,187.200 90.635 C 187.200 91.326,187.535 92.321,187.945 92.846 C 188.355 93.371,188.817 94.205,188.972 94.700 C 189.127 95.195,189.455 95.600,189.701 95.600 C 189.947 95.600,190.558 95.985,191.059 96.456 C 192.371 97.688,197.241 97.677,198.560 96.438 C 199.050 95.977,199.645 95.600,199.882 95.600 C 200.119 95.600,200.426 95.150,200.564 94.600 C 200.702 94.050,201.059 93.600,201.358 93.600 C 201.917 93.600,202.400 91.932,202.400 89.999 C 202.400 89.393,202.673 88.671,203.007 88.395 C 203.525 87.964,203.598 86.382,203.507 77.446 L 203.400 67.000 202.500 66.872 C 201.905 66.788,201.600 66.470,201.600 65.935 C 201.600 65.462,201.268 65.038,200.800 64.916 C 200.357 64.800,200.000 64.370,200.000 63.953 C 200.000 63.253,199.622 63.200,194.600 63.200 C 189.467 63.200,189.200 63.240,189.200 64.000 M212.400 63.953 C 212.400 64.370,212.043 64.800,211.600 64.916 C 210.967 65.081,210.800 65.462,210.800 66.735 C 210.800 68.099,210.663 68.364,209.900 68.472 L 209.000 68.600 208.893 78.157 C 208.789 87.353,208.816 87.736,209.593 88.280 C 210.037 88.591,210.399 89.150,210.399 89.523 C 210.397 90.432,212.439 95.200,212.829 95.200 C 212.999 95.200,213.703 95.675,214.393 96.256 C 218.225 99.480,224.841 96.357,225.570 90.979 C 225.735 89.764,226.079 88.561,226.335 88.305 C 226.665 87.975,226.800 84.779,226.800 77.320 L 226.800 66.800 225.800 66.800 C 225.052 66.800,224.800 66.589,224.800 65.963 C 224.800 65.475,224.481 65.042,224.037 64.926 C 223.617 64.816,223.184 64.383,223.074 63.963 C 222.769 62.794,212.400 62.785,212.400 63.953 M237.200 64.000 C 237.200 64.667,236.933 64.800,235.600 64.800 C 234.604 64.800,233.988 64.989,233.968 65.300 C 233.540 71.936,234.128 90.117,234.838 92.200 C 237.396 99.709,246.985 99.133,248.867 91.357 C 249.971 86.800,249.916 66.800,248.800 66.800 C 248.213 66.800,248.000 66.533,248.000 65.800 C 248.000 65.067,247.787 64.800,247.200 64.800 C 246.484 64.800,246.213 64.384,246.353 63.500 C 246.379 63.335,244.330 63.200,241.800 63.200 C 237.467 63.200,237.200 63.246,237.200 64.000 M260.400 63.953 C 260.400 64.370,260.043 64.800,259.600 64.916 C 259.132 65.038,258.800 65.462,258.800 65.935 C 258.800 66.470,258.495 66.788,257.900 66.872 L 257.000 67.000 256.893 77.181 C 256.808 85.248,256.902 87.616,257.347 88.581 C 257.656 89.252,258.029 90.651,258.177 91.692 C 258.544 94.271,261.322 97.165,263.532 97.270 C 266.627 97.418,268.179 97.121,269.316 96.163 C 269.946 95.634,270.594 95.200,270.757 95.200 C 271.141 95.200,272.800 91.200,272.800 90.274 C 272.800 89.883,273.250 89.114,273.800 88.564 L 274.800 87.564 274.800 78.615 C 274.800 69.034,274.723 68.400,273.557 68.400 C 272.938 68.400,272.800 68.102,272.800 66.763 C 272.800 65.488,272.631 65.081,272.037 64.926 C 271.617 64.816,271.184 64.383,271.074 63.963 C 270.769 62.794,260.400 62.785,260.400 63.953 M64.964 117.400 C 64.807 118.026,64.430 118.400,63.957 118.400 C 63.327 118.400,63.200 118.701,63.200 120.200 C 63.200 121.190,63.065 121.979,62.900 121.953 C 61.720 121.766,61.357 122.103,61.265 123.467 C 61.109 125.784,61.551 127.200,62.432 127.200 C 63.076 127.200,63.200 127.491,63.200 129.000 C 63.200 130.533,63.319 130.800,64.000 130.800 C 64.533 130.800,64.800 131.067,64.800 131.600 C 64.800 132.280,65.067 132.400,66.572 132.400 C 68.105 132.400,68.362 132.521,68.472 133.300 L 68.600 134.200 78.271 134.307 C 87.666 134.411,87.949 134.391,88.198 133.607 C 88.352 133.120,88.803 132.800,89.333 132.800 C 90.978 132.800,95.600 129.781,95.600 128.706 C 95.600 128.516,95.943 127.651,96.362 126.783 C 97.290 124.863,96.023 120.122,94.424 119.531 C 93.971 119.363,93.600 119.058,93.600 118.852 C 93.600 118.367,91.389 117.600,89.989 117.600 C 89.389 117.600,88.674 117.330,88.400 117.000 C 87.979 116.492,86.154 116.400,76.559 116.400 L 65.215 116.400 64.964 117.400 M300.841 116.951 C 300.589 117.254,299.419 117.582,298.241 117.680 C 289.193 118.430,290.475 132.800,299.589 132.800 C 300.031 132.800,300.618 133.160,300.893 133.600 C 301.370 134.364,301.826 134.400,311.096 134.400 L 320.800 134.400 320.800 133.400 C 320.800 132.481,320.947 132.400,322.600 132.400 L 324.400 132.400 324.400 130.600 C 324.400 128.964,324.488 128.800,325.364 128.800 C 326.829 128.800,326.766 120.280,325.300 120.072 C 324.722 119.990,324.400 119.668,324.400 119.172 C 324.400 118.667,324.124 118.400,323.600 118.400 C 322.892 118.400,322.582 117.779,322.753 116.700 C 322.847 116.100,301.342 116.347,300.841 116.951 M66.800 140.400 C 66.800 141.180,66.274 141.350,63.900 141.340 C 63.341 141.337,63.200 141.684,63.200 143.068 C 63.200 144.498,63.068 144.800,62.447 144.800 C 61.545 144.800,61.213 145.834,61.205 148.667 C 61.199 151.246,61.479 152.000,62.443 152.000 C 62.933 152.000,63.200 152.282,63.200 152.800 C 63.200 153.333,63.467 153.600,64.000 153.600 C 64.587 153.600,64.800 153.867,64.800 154.600 C 64.800 155.400,65.000 155.600,65.800 155.600 C 66.533 155.600,66.800 155.813,66.800 156.400 C 66.800 157.479,87.511 157.671,88.400 156.600 C 88.674 156.270,89.423 156.000,90.065 156.000 C 91.663 156.000,95.600 153.244,95.600 152.126 C 95.600 151.832,95.978 150.788,96.439 149.806 C 97.277 148.024,97.277 148.019,96.490 146.711 C 96.057 145.990,95.584 144.897,95.439 144.283 C 95.295 143.668,94.867 143.053,94.488 142.915 C 94.110 142.777,93.291 142.244,92.669 141.732 C 91.991 141.173,91.011 140.800,90.218 140.800 C 89.492 140.800,88.674 140.530,88.400 140.200 C 87.511 139.129,66.800 139.321,66.800 140.400 M301.078 140.141 C 300.950 140.475,299.953 140.766,298.477 140.900 C 296.782 141.053,295.838 141.362,295.242 141.958 C 294.779 142.421,294.220 142.800,294.000 142.800 C 293.780 142.800,293.600 143.061,293.600 143.380 C 293.600 143.699,293.285 144.137,292.900 144.352 C 292.313 144.681,292.200 145.334,292.200 148.400 C 292.200 151.466,292.313 152.119,292.900 152.448 C 293.285 152.663,293.600 153.105,293.600 153.430 C 293.600 153.754,294.005 154.203,294.500 154.427 C 294.995 154.651,295.850 155.094,296.400 155.411 C 296.950 155.729,298.053 155.991,298.851 155.994 C 299.649 155.997,300.526 156.270,300.800 156.600 C 301.672 157.650,320.800 157.481,320.800 156.423 C 320.800 155.795,321.126 155.622,322.500 155.523 C 323.913 155.421,324.222 155.248,324.328 154.500 C 324.420 153.849,324.724 153.600,325.428 153.600 L 326.400 153.600 326.400 149.033 C 326.400 143.924,326.246 143.200,325.157 143.200 C 324.616 143.200,324.400 142.914,324.400 142.200 C 324.400 141.487,324.184 141.200,323.647 141.200 C 323.230 141.200,322.800 140.843,322.684 140.400 C 322.415 139.371,301.470 139.121,301.078 140.141 M66.800 163.600 C 66.800 164.187,66.533 164.400,65.800 164.400 C 65.000 164.400,64.800 164.600,64.800 165.400 C 64.800 166.133,64.587 166.400,64.000 166.400 C 63.319 166.400,63.200 166.667,63.200 168.200 C 63.200 169.190,63.065 169.979,62.900 169.953 C 61.720 169.766,61.357 170.103,61.265 171.467 C 61.109 173.784,61.551 175.200,62.432 175.200 C 63.058 175.200,63.200 175.488,63.200 176.757 C 63.200 178.446,63.622 178.800,65.633 178.800 C 66.533 178.800,66.800 178.983,66.800 179.600 C 66.800 180.635,87.507 180.876,88.357 179.851 C 88.608 179.550,89.600 179.214,90.563 179.105 C 92.245 178.916,95.600 176.789,95.600 175.911 C 95.600 175.716,95.955 174.776,96.390 173.822 L 97.180 172.088 96.152 169.558 C 95.144 167.078,93.962 165.600,92.988 165.600 C 92.718 165.600,92.274 165.330,92.000 165.000 C 91.726 164.670,91.098 164.400,90.605 164.400 C 90.112 164.400,89.250 164.040,88.691 163.600 C 87.733 162.846,87.068 162.800,77.237 162.800 C 67.067 162.800,66.800 162.820,66.800 163.600 M300.826 163.369 C 300.566 163.682,299.621 164.061,298.726 164.213 C 296.882 164.524,294.793 165.652,293.248 167.170 C 291.094 169.287,292.215 177.600,294.655 177.600 C 294.933 177.600,295.327 177.898,295.531 178.263 C 295.784 178.715,296.615 178.985,298.143 179.112 C 299.375 179.214,300.589 179.546,300.841 179.849 C 301.693 180.877,322.800 180.637,322.800 179.600 C 322.800 179.067,323.067 178.800,323.600 178.800 C 324.181 178.800,324.400 178.533,324.400 177.828 C 324.400 177.124,324.649 176.820,325.300 176.728 C 326.173 176.604,326.203 176.445,326.312 171.500 L 326.424 166.400 325.440 166.400 C 324.724 166.400,324.421 166.155,324.328 165.500 C 324.222 164.752,323.913 164.579,322.500 164.477 C 321.126 164.378,320.800 164.205,320.800 163.577 C 320.800 162.546,301.674 162.346,300.826 163.369 M68.900 185.865 C 68.625 185.976,68.400 186.412,68.400 186.833 C 68.400 187.475,68.107 187.600,66.600 187.600 C 65.067 187.600,64.800 187.719,64.800 188.400 C 64.800 188.933,64.533 189.200,64.000 189.200 C 63.319 189.200,63.200 189.467,63.200 191.000 C 63.200 192.519,63.078 192.800,62.418 192.800 C 60.830 192.800,60.740 198.097,62.325 198.328 C 63.055 198.434,63.200 198.716,63.200 200.028 C 63.200 201.314,63.340 201.600,63.972 201.600 C 64.468 201.600,64.790 201.922,64.872 202.500 L 65.000 203.400 76.200 203.508 C 85.426 203.596,87.612 203.511,88.600 203.025 C 89.260 202.700,90.655 202.326,91.700 202.193 C 92.850 202.046,93.600 201.749,93.600 201.440 C 93.600 201.158,94.050 200.723,94.600 200.473 C 95.150 200.222,95.600 199.733,95.600 199.387 C 95.600 199.040,95.972 197.939,96.427 196.941 L 97.254 195.126 96.427 193.368 C 95.972 192.400,95.600 191.501,95.600 191.368 C 95.600 190.926,93.408 188.800,92.952 188.800 C 92.039 188.800,88.584 187.056,88.077 186.340 C 87.569 185.621,70.549 185.199,68.900 185.865 M301.200 186.167 C 301.200 186.904,299.989 187.600,298.706 187.600 C 298.186 187.600,297.589 187.758,297.380 187.952 C 297.171 188.145,296.325 188.519,295.500 188.783 C 294.675 189.046,294.000 189.421,294.000 189.615 C 294.000 189.810,293.595 190.346,293.100 190.807 C 292.335 191.519,292.179 192.141,292.062 194.944 L 291.924 198.242 293.960 200.321 C 295.781 202.180,296.176 202.400,297.698 202.402 C 298.634 202.404,299.916 202.674,300.546 203.002 C 301.780 203.646,322.852 203.928,322.753 203.300 C 322.582 202.221,322.892 201.600,323.600 201.600 C 324.133 201.600,324.400 201.333,324.400 200.800 C 324.400 200.220,324.667 200.000,325.370 200.000 C 326.339 200.000,326.341 199.991,326.341 195.600 C 326.341 191.209,326.339 191.200,325.370 191.200 C 324.487 191.200,324.400 191.039,324.400 189.400 L 324.400 187.600 322.600 187.600 C 321.101 187.600,320.800 187.474,320.800 186.843 C 320.800 185.720,320.538 185.689,310.477 185.623 C 302.434 185.569,301.200 185.642,301.200 186.167 M86.548 209.867 L 86.313 210.800 75.719 210.800 C 65.462 210.800,65.118 210.825,64.916 211.600 C 64.800 212.043,64.370 212.400,63.953 212.400 C 63.327 212.400,63.200 212.704,63.200 214.200 C 63.200 215.712,63.076 216.000,62.427 216.000 C 61.476 216.000,61.132 216.993,61.255 219.377 C 61.339 220.988,61.457 221.200,62.275 221.200 C 63.105 221.200,63.200 221.385,63.200 223.000 C 63.200 224.533,63.319 224.800,64.000 224.800 C 64.587 224.800,64.800 225.067,64.800 225.800 C 64.800 226.350,64.935 226.779,65.100 226.753 C 68.546 226.209,86.336 226.912,86.516 227.600 C 86.789 228.645,88.000 228.650,88.000 227.605 C 88.000 226.763,89.495 225.951,91.926 225.471 C 93.313 225.198,95.599 223.244,95.601 222.331 C 95.602 222.039,95.954 221.224,96.384 220.519 C 98.151 217.621,95.096 212.673,90.885 211.613 C 88.713 211.066,88.000 210.573,88.000 209.618 C 88.000 208.591,86.817 208.794,86.548 209.867 M299.400 211.287 C 298.520 211.499,297.061 211.852,296.158 212.072 C 290.863 213.361,290.541 224.142,295.759 225.420 C 299.589 226.359,302.119 226.542,311.600 226.569 L 322.200 226.600 322.595 225.700 C 322.812 225.205,323.307 224.800,323.695 224.800 C 324.125 224.800,324.400 224.499,324.400 224.028 C 324.400 223.532,324.722 223.210,325.300 223.128 C 326.161 223.005,326.205 222.815,326.314 218.700 L 326.427 214.400 325.414 214.400 C 324.652 214.400,324.400 214.192,324.400 213.563 C 324.400 213.062,324.079 212.641,323.600 212.516 C 323.157 212.400,322.800 211.970,322.800 211.553 C 322.800 210.702,302.776 210.473,299.400 211.287 M65.180 234.180 C 64.971 234.389,64.800 234.794,64.800 235.080 C 64.800 235.366,64.440 235.600,64.000 235.600 C 63.319 235.600,63.200 235.867,63.200 237.400 C 63.200 239.015,63.105 239.200,62.275 239.200 C 61.457 239.200,61.339 239.412,61.255 241.023 C 61.132 243.407,61.476 244.400,62.427 244.400 C 63.076 244.400,63.200 244.688,63.200 246.200 C 63.200 247.696,63.327 248.000,63.953 248.000 C 64.370 248.000,64.800 248.357,64.916 248.800 C 65.081 249.433,65.462 249.600,66.735 249.600 C 68.099 249.600,68.364 249.737,68.472 250.500 L 68.600 251.400 78.130 251.507 C 87.063 251.608,87.702 251.567,88.330 250.855 C 88.698 250.438,90.070 249.669,91.378 249.148 C 93.683 248.229,95.600 246.783,95.600 245.962 C 95.600 245.742,95.954 244.828,96.388 243.931 C 97.171 242.310,97.171 242.292,96.388 240.573 C 95.954 239.622,95.600 238.503,95.600 238.086 C 95.600 237.666,95.154 237.125,94.600 236.873 C 94.050 236.622,93.600 236.251,93.600 236.048 C 93.600 235.571,91.388 234.800,90.020 234.800 C 89.437 234.800,88.789 234.635,88.580 234.432 C 88.062 233.931,65.669 233.690,65.180 234.180 M311.213 233.897 C 305.244 233.965,300.863 234.177,300.633 234.407 C 300.417 234.623,299.690 234.800,299.017 234.800 C 296.025 234.800,292.784 237.029,292.138 239.532 C 291.613 241.564,292.245 246.016,293.148 246.649 C 293.617 246.977,294.000 247.468,294.000 247.740 C 294.000 248.012,294.810 248.451,295.800 248.716 C 296.790 248.980,297.600 249.378,297.600 249.598 C 297.600 249.819,298.228 250.000,298.997 250.000 C 299.960 250.000,300.548 250.248,300.893 250.800 C 301.370 251.564,301.826 251.600,311.096 251.600 L 320.800 251.600 320.800 250.600 C 320.800 249.681,320.947 249.600,322.600 249.600 L 324.400 249.600 324.400 248.028 C 324.400 246.702,324.541 246.436,325.300 246.328 C 326.171 246.204,326.200 246.058,326.200 241.800 C 326.200 237.542,326.171 237.396,325.300 237.272 C 324.722 237.190,324.400 236.868,324.400 236.372 C 324.400 235.876,324.124 235.600,323.628 235.600 C 323.133 235.600,322.810 235.278,322.728 234.704 C 322.658 234.211,322.330 233.802,322.000 233.794 C 321.670 233.786,316.816 233.832,311.213 233.897 M67.067 257.067 C 66.920 257.213,66.800 257.663,66.800 258.067 C 66.800 258.669,66.479 258.800,65.000 258.800 L 63.200 258.800 63.200 260.600 C 63.200 262.235,63.112 262.400,62.236 262.400 C 61.294 262.400,61.273 262.474,61.273 265.800 C 61.273 269.126,61.294 269.200,62.236 269.200 C 62.948 269.200,63.200 269.419,63.200 270.037 C 63.200 270.525,63.519 270.958,63.963 271.074 C 64.383 271.184,64.816 271.617,64.926 272.037 C 65.039 272.471,65.475 272.800,65.935 272.800 C 66.470 272.800,66.788 273.105,66.872 273.700 L 67.000 274.600 77.358 274.707 C 87.354 274.810,87.735 274.786,88.280 274.007 C 88.598 273.553,89.296 273.200,89.875 273.200 C 91.582 273.200,95.600 270.470,95.600 269.311 C 95.600 269.009,95.954 268.028,96.388 267.131 C 97.159 265.535,97.160 265.467,96.435 263.851 C 96.028 262.943,95.575 261.804,95.427 261.320 C 95.280 260.837,94.832 260.337,94.432 260.210 C 94.033 260.083,93.384 259.624,92.991 259.190 C 92.562 258.716,91.762 258.400,90.992 258.400 C 90.286 258.400,89.250 258.040,88.691 257.600 C 87.663 256.792,67.831 256.302,67.067 257.067 M301.000 257.416 C 300.749 257.810,299.747 258.130,298.305 258.277 C 296.280 258.483,295.785 258.723,294.105 260.310 L 292.200 262.110 292.200 265.555 C 292.200 268.594,292.306 269.106,293.100 269.900 C 293.595 270.395,294.000 270.980,294.000 271.200 C 294.000 271.420,294.266 271.600,294.590 271.600 C 294.915 271.600,295.770 271.959,296.490 272.399 C 297.211 272.838,298.295 273.198,298.900 273.199 C 299.505 273.199,300.360 273.560,300.800 274.000 C 301.556 274.756,302.133 274.800,311.200 274.800 L 320.800 274.800 320.800 273.800 C 320.800 272.881,320.947 272.800,322.600 272.800 C 324.112 272.800,324.400 272.676,324.400 272.028 C 324.400 271.532,324.722 271.210,325.300 271.128 C 326.181 271.003,326.200 270.888,326.200 265.800 C 326.200 260.712,326.181 260.597,325.300 260.472 C 324.722 260.390,324.400 260.068,324.400 259.572 C 324.400 259.076,324.124 258.800,323.628 258.800 C 323.132 258.800,322.810 258.478,322.728 257.900 L 322.600 257.000 312.000 256.894 C 302.736 256.802,301.350 256.868,301.000 257.416 M122.282 293.638 C 119.792 294.224,118.096 295.864,117.603 298.161 C 117.109 300.466,116.606 301.200,115.523 301.200 C 114.944 301.200,114.777 301.431,114.872 302.100 C 114.942 302.595,115.270 303.000,115.600 303.000 C 116.113 303.000,116.232 304.541,116.417 313.600 C 116.536 319.430,116.671 324.245,116.717 324.300 C 116.763 324.355,117.160 324.400,117.600 324.400 C 118.187 324.400,118.400 324.667,118.400 325.400 C 118.400 325.950,118.535 326.379,118.700 326.353 C 119.513 326.224,119.925 326.471,120.116 327.200 C 120.433 328.411,128.800 328.438,128.800 327.228 C 128.800 326.732,129.122 326.410,129.700 326.328 C 130.278 326.246,130.646 325.878,130.728 325.300 C 130.810 324.725,131.132 324.400,131.621 324.400 C 132.354 324.400,132.392 323.936,132.493 313.700 C 132.589 304.071,132.665 303.011,133.252 303.106 C 133.620 303.167,133.992 302.872,134.108 302.430 C 134.352 301.499,134.118 301.200,133.147 301.200 C 132.231 301.200,131.753 300.294,131.390 297.871 C 131.168 296.390,130.893 295.863,130.205 295.602 C 129.712 295.415,129.207 294.995,129.082 294.670 C 128.957 294.344,127.934 293.881,126.808 293.639 C 124.499 293.144,124.380 293.144,122.282 293.638 M145.200 293.672 C 142.999 294.301,141.145 296.415,140.902 298.574 C 140.789 299.571,140.450 300.592,140.149 300.843 C 139.144 301.676,139.362 324.013,140.378 324.278 C 140.805 324.390,141.210 324.868,141.278 325.341 C 141.377 326.042,141.713 326.223,143.100 326.323 C 144.474 326.422,144.800 326.595,144.800 327.223 C 144.800 327.935,145.102 328.000,148.400 328.000 C 151.733 328.000,152.000 327.941,152.000 327.200 C 152.000 326.667,152.267 326.400,152.800 326.400 C 153.381 326.400,153.600 326.133,153.600 325.428 C 153.600 324.724,153.849 324.420,154.500 324.328 C 155.248 324.222,155.421 323.913,155.523 322.500 C 155.622 321.126,155.795 320.800,156.423 320.800 C 157.466 320.800,157.658 301.461,156.619 301.063 C 156.044 300.842,154.400 297.671,154.400 296.782 C 154.400 294.495,148.867 292.625,145.200 293.672 M169.009 293.580 C 166.972 293.994,164.501 296.707,164.139 298.927 C 164.001 299.767,163.644 300.699,163.345 300.998 C 162.347 301.996,162.565 324.400,163.572 324.400 C 164.068 324.400,164.390 324.722,164.472 325.300 C 164.578 326.044,164.888 326.221,166.259 326.321 C 167.507 326.412,167.968 326.635,168.121 327.221 C 168.438 328.430,175.200 328.410,175.200 327.200 C 175.200 326.650,175.481 326.387,176.100 326.357 C 178.646 326.237,178.595 326.273,178.722 324.520 C 178.813 323.272,179.044 322.776,179.622 322.593 C 180.847 322.204,180.826 302.026,179.600 300.800 C 179.160 300.360,178.800 299.479,178.800 298.843 C 178.800 298.183,178.542 297.587,178.200 297.455 C 177.870 297.329,177.600 296.968,177.600 296.654 C 177.600 295.899,174.960 293.601,174.086 293.596 C 173.709 293.593,172.770 293.516,172.000 293.424 C 171.230 293.332,169.884 293.403,169.009 293.580 M192.788 293.555 C 190.965 293.930,188.925 295.447,188.622 296.653 C 188.492 297.174,188.216 297.600,188.011 297.600 C 187.805 297.600,187.518 298.275,187.374 299.100 C 187.229 299.925,186.871 300.792,186.579 301.027 C 185.541 301.860,185.682 322.568,186.726 322.725 C 187.390 322.825,187.581 323.185,187.678 324.525 C 187.799 326.188,187.813 326.201,189.500 326.323 C 190.874 326.422,191.200 326.595,191.200 327.223 C 191.200 327.935,191.502 328.000,194.800 328.000 C 196.780 328.000,198.379 327.865,198.353 327.700 C 198.189 326.667,198.527 326.400,200.000 326.400 L 201.600 326.400 201.600 324.600 C 201.600 322.846,201.891 322.530,203.300 322.753 C 203.902 322.848,203.654 301.306,203.050 301.075 C 202.748 300.959,202.382 300.074,202.237 299.110 C 202.093 298.145,201.665 297.058,201.287 296.693 C 200.909 296.328,200.060 295.484,199.400 294.816 C 198.740 294.147,197.817 293.601,197.350 293.600 C 196.883 293.600,195.983 293.524,195.350 293.432 C 194.718 293.340,193.565 293.395,192.788 293.555 M215.840 293.646 C 213.657 294.159,210.400 298.118,210.400 300.259 C 210.400 300.598,210.037 300.970,209.593 301.086 C 208.258 301.435,208.552 322.003,209.900 322.595 C 210.395 322.812,210.800 323.307,210.800 323.695 C 210.800 324.125,211.101 324.400,211.572 324.400 C 212.068 324.400,212.390 324.722,212.472 325.300 C 212.554 325.878,212.922 326.246,213.500 326.328 C 214.078 326.410,214.400 326.732,214.400 327.228 C 214.400 327.930,214.707 328.000,217.800 328.000 C 220.933 328.000,221.200 327.937,221.200 327.200 C 221.200 326.519,221.467 326.400,223.000 326.400 C 224.653 326.400,224.800 326.319,224.800 325.400 C 224.800 324.686,225.016 324.400,225.557 324.400 C 226.740 324.400,226.800 323.813,226.800 312.216 C 226.800 303.458,226.692 301.208,226.252 300.843 C 225.950 300.593,225.609 299.684,225.494 298.823 C 224.939 294.683,220.824 292.477,215.840 293.646 M239.379 293.609 C 237.206 294.041,235.403 295.780,235.033 297.802 C 234.654 299.875,233.781 301.200,232.795 301.200 C 232.207 301.200,232.029 301.445,232.089 302.172 C 232.134 302.706,232.267 303.135,232.385 303.124 C 234.112 302.971,234.050 302.559,233.971 313.700 C 233.896 324.135,233.901 324.201,234.748 324.328 C 235.349 324.418,235.600 324.742,235.600 325.428 C 235.600 326.203,235.807 326.400,236.618 326.400 C 237.365 326.400,237.604 326.586,237.518 327.100 C 237.322 328.266,245.976 328.379,246.280 327.214 C 246.474 326.473,246.884 326.224,247.700 326.353 C 247.865 326.379,248.000 325.950,248.000 325.400 C 248.000 324.667,248.213 324.400,248.800 324.400 C 249.580 324.400,249.600 324.133,249.600 313.864 L 249.600 303.328 250.600 302.873 C 251.905 302.278,251.918 301.200,250.620 301.200 C 249.776 301.200,249.545 300.883,248.941 298.900 C 247.566 294.381,244.378 292.617,239.379 293.609 M262.691 293.636 C 260.472 294.159,258.575 296.239,258.232 298.526 C 258.078 299.551,257.693 300.650,257.376 300.967 C 256.901 301.441,256.800 303.556,256.800 312.971 L 256.800 324.400 257.800 324.400 C 258.600 324.400,258.800 324.600,258.800 325.400 C 258.800 325.950,258.935 326.379,259.100 326.353 C 259.913 326.224,260.325 326.471,260.516 327.200 C 260.833 328.411,269.200 328.438,269.200 327.228 C 269.200 326.732,269.522 326.410,270.100 326.328 C 270.678 326.246,271.046 325.878,271.128 325.300 C 271.210 324.722,271.532 324.400,272.028 324.400 C 272.676 324.400,272.800 324.112,272.800 322.600 C 272.800 320.947,272.881 320.800,273.800 320.800 L 274.800 320.800 274.800 311.000 C 274.800 302.513,274.719 301.200,274.194 301.200 C 273.474 301.200,272.134 299.122,271.762 297.429 C 271.368 295.634,269.403 294.018,267.078 293.577 C 264.824 293.149,264.752 293.150,262.691 293.636 " stroke="none" fill="#06acec" fill-rule="evenodd"></path><path id="path1" d="M136.400 117.025 C 135.630 117.316,134.564 117.565,134.032 117.577 C 131.787 117.630,124.823 121.738,122.600 124.322 C 121.940 125.089,120.995 126.116,120.500 126.604 C 120.005 127.092,119.600 127.661,119.600 127.868 C 119.600 128.075,119.150 128.855,118.600 129.600 C 118.050 130.345,117.599 131.235,117.598 131.578 C 117.596 131.920,117.321 132.725,116.986 133.367 C 115.713 135.810,115.616 140.173,115.616 195.200 C 115.616 250.030,115.722 254.941,116.953 256.915 C 117.256 257.402,117.618 258.290,117.757 258.890 C 117.986 259.877,118.687 261.092,120.706 264.000 C 121.599 265.287,124.313 268.001,125.600 268.894 C 128.374 270.820,129.682 271.600,130.133 271.600 C 130.407 271.600,131.344 272.005,132.215 272.500 L 133.800 273.400 194.200 273.400 L 254.600 273.400 256.000 272.501 C 256.770 272.007,257.707 271.602,258.082 271.601 C 259.842 271.598,267.565 265.200,268.191 263.227 C 268.336 262.772,268.595 262.400,268.767 262.400 C 269.286 262.400,271.428 257.589,272.240 254.600 C 272.967 251.922,273.005 249.383,273.115 196.200 L 273.229 140.600 272.367 137.000 C 271.893 135.020,271.076 132.497,270.552 131.394 C 270.029 130.291,269.600 129.185,269.600 128.937 C 269.600 128.689,269.330 128.382,269.000 128.255 C 268.670 128.129,268.400 127.794,268.399 127.513 C 268.397 126.483,260.648 119.600,259.491 119.600 C 259.170 119.600,258.469 119.255,257.933 118.833 C 257.396 118.411,256.247 117.940,255.379 117.785 C 254.510 117.631,252.817 117.256,251.616 116.953 C 248.452 116.152,138.524 116.221,136.400 117.025 M237.738 131.212 C 239.243 131.429,240.858 131.876,241.327 132.204 C 241.795 132.532,242.553 132.800,243.011 132.800 C 243.470 132.800,244.455 133.250,245.200 133.800 C 245.945 134.350,246.717 134.800,246.914 134.800 C 248.029 134.800,253.828 140.426,254.644 142.300 C 254.956 143.015,255.374 143.600,255.574 143.600 C 255.774 143.600,256.159 144.270,256.429 145.089 C 256.700 145.908,257.157 146.814,257.445 147.102 C 257.733 147.390,258.075 148.295,258.205 149.113 C 258.334 149.931,258.701 151.602,259.020 152.826 C 259.875 156.107,259.887 234.455,259.034 237.427 C 258.722 238.512,258.346 240.169,258.197 241.108 C 258.049 242.047,257.682 243.061,257.383 243.360 C 257.084 243.659,256.713 244.420,256.559 245.052 C 256.405 245.683,255.857 246.740,255.341 247.400 C 254.825 248.060,253.998 249.121,253.502 249.758 C 252.332 251.259,250.782 252.797,249.429 253.800 C 248.835 254.240,248.042 254.870,247.667 255.200 C 246.433 256.285,242.009 258.400,240.974 258.400 C 240.417 258.400,239.384 258.715,238.680 259.100 C 237.484 259.754,234.608 259.800,194.600 259.800 C 154.482 259.800,151.738 259.756,150.811 259.100 C 150.267 258.715,149.367 258.399,148.811 258.398 C 147.036 258.396,142.414 255.869,140.219 253.700 C 139.718 253.205,139.149 252.792,138.954 252.783 C 138.759 252.774,137.700 251.608,136.600 250.193 C 135.500 248.777,134.285 247.227,133.900 246.748 C 133.515 246.269,133.199 245.590,133.199 245.239 C 133.198 244.887,132.824 243.988,132.368 243.241 C 130.485 240.151,130.375 237.181,130.526 193.564 C 130.667 152.822,130.776 149.671,132.117 147.549 C 132.447 147.027,132.843 146.176,132.998 145.659 C 133.732 143.207,139.357 136.440,140.686 136.411 C 140.953 136.405,141.365 136.040,141.600 135.600 C 141.835 135.160,142.354 134.800,142.752 134.800 C 143.150 134.800,143.793 134.450,144.179 134.023 C 144.566 133.595,145.449 133.127,146.141 132.983 C 146.834 132.839,147.809 132.462,148.310 132.145 C 148.810 131.828,150.250 131.418,151.510 131.233 C 154.832 130.746,234.381 130.726,237.738 131.212 " stroke="none" fill="#f9f9f9" fill-rule="evenodd"></path><path id="path2" d="M109.897 88.975 L 110.084 89.951 106.242 89.781 L 102.400 89.612 102.400 90.606 C 102.400 91.517,102.250 91.600,100.600 91.600 C 99.067 91.600,98.800 91.719,98.800 92.400 C 98.800 92.987,98.533 93.200,97.800 93.200 C 97.000 93.200,96.800 93.400,96.800 94.200 C 96.800 94.933,96.587 95.200,96.000 95.200 C 95.467 95.200,95.200 95.467,95.200 96.000 C 95.200 96.587,94.933 96.800,94.200 96.800 C 93.400 96.800,93.200 97.000,93.200 97.800 C 93.200 98.533,92.987 98.800,92.400 98.800 C 91.719 98.800,91.600 99.067,91.600 100.600 C 91.600 102.253,91.519 102.400,90.600 102.400 C 89.705 102.400,89.600 102.563,89.600 103.953 C 89.600 105.170,89.427 105.552,88.800 105.716 C 87.576 106.036,87.557 116.400,88.780 116.400 C 93.969 116.400,97.759 119.959,97.786 124.858 C 97.795 126.684,97.607 127.748,97.183 128.258 C 96.843 128.666,96.327 129.479,96.034 130.064 C 95.327 131.481,91.997 133.600,90.477 133.600 C 88.186 133.600,88.000 133.842,88.000 136.824 L 88.000 139.562 89.500 139.979 C 90.325 140.208,91.466 140.397,92.036 140.398 C 94.603 140.403,98.247 145.528,97.897 148.640 C 97.463 152.488,94.369 156.241,91.290 156.653 C 87.810 157.118,88.000 156.925,88.000 159.989 L 88.000 162.762 89.500 163.179 C 90.325 163.408,91.307 163.597,91.682 163.598 C 92.867 163.602,95.354 165.589,96.521 167.465 C 99.782 172.703,96.812 179.053,90.605 180.116 L 88.000 180.562 88.000 183.291 C 88.000 186.265,88.437 186.760,91.126 186.827 C 95.544 186.936,99.848 195.653,97.025 198.773 C 96.681 199.152,96.400 199.644,96.400 199.865 C 96.400 201.186,91.305 204.000,88.915 204.000 C 88.056 204.000,88.000 204.158,88.000 206.586 C 88.000 209.327,88.464 210.000,90.351 210.000 C 91.849 210.000,96.400 213.117,96.400 214.143 C 96.400 214.360,96.676 214.841,97.012 215.214 C 100.204 218.740,94.909 227.563,89.580 227.596 C 88.448 227.603,88.000 228.535,88.000 230.880 C 88.000 232.897,88.100 233.200,88.764 233.200 C 91.254 233.200,96.400 236.327,96.400 237.839 C 96.400 238.126,96.714 238.536,97.098 238.751 C 100.530 240.671,94.965 250.800,90.478 250.800 C 88.465 250.800,88.000 251.433,88.000 254.171 C 88.000 257.021,87.992 257.012,91.235 257.442 C 94.961 257.937,98.293 262.155,97.888 265.864 C 97.344 270.848,93.414 274.275,88.100 274.398 C 87.432 274.413,88.108 285.200,88.777 285.200 C 89.405 285.200,89.578 285.526,89.677 286.900 C 89.779 288.313,89.952 288.622,90.700 288.728 C 91.479 288.838,91.600 289.095,91.600 290.628 C 91.600 292.112,91.725 292.400,92.372 292.400 C 92.868 292.400,93.190 292.722,93.272 293.300 C 93.354 293.878,93.722 294.246,94.300 294.328 C 94.865 294.408,95.200 294.733,95.200 295.200 C 95.200 295.667,95.535 295.992,96.100 296.072 C 96.595 296.142,97.000 296.470,97.000 296.800 C 97.000 297.220,97.510 297.437,98.700 297.523 C 100.202 297.632,100.400 297.760,100.400 298.623 C 100.400 299.514,100.558 299.600,102.200 299.600 C 103.741 299.600,104.000 299.716,104.000 300.411 C 104.000 301.193,104.204 301.218,109.688 301.111 L 115.375 301.000 115.815 299.600 C 117.774 293.359,123.034 290.116,127.406 292.452 C 130.636 294.178,133.133 297.190,133.182 299.420 C 133.212 300.775,134.025 301.200,136.591 301.200 L 139.023 301.200 139.724 298.478 C 141.427 291.867,149.557 289.556,153.813 294.474 C 155.401 296.309,156.400 297.983,156.400 298.810 C 156.400 300.766,157.048 301.200,159.962 301.200 L 162.696 301.200 163.180 298.700 C 163.887 295.051,167.883 291.600,171.400 291.600 C 174.426 291.600,179.600 295.711,179.600 298.115 C 179.600 300.819,180.125 301.246,183.294 301.118 L 186.195 301.000 186.521 298.945 C 187.075 295.452,191.491 291.600,194.942 291.600 C 197.825 291.600,202.800 295.547,202.800 297.835 C 202.800 300.760,203.268 301.200,206.382 301.200 C 209.113 301.200,209.191 301.172,209.430 300.100 C 209.910 297.943,210.123 297.400,210.956 296.222 C 215.579 289.680,223.708 290.635,226.414 298.038 C 226.820 299.149,227.051 300.324,226.926 300.648 C 226.737 301.140,227.184 301.218,229.642 301.119 C 232.524 301.002,232.591 300.976,232.948 299.800 C 234.355 295.160,238.195 291.600,241.791 291.600 C 243.663 291.600,249.200 294.985,249.200 296.129 C 249.200 296.321,249.445 297.046,249.744 297.740 C 250.043 298.433,250.489 299.495,250.735 300.100 C 251.302 301.493,256.400 301.853,256.400 300.500 C 256.402 296.690,261.395 291.580,265.087 291.609 C 267.398 291.627,272.400 294.788,272.400 296.229 C 272.400 296.489,272.670 296.926,273.000 297.200 C 273.330 297.474,273.600 298.027,273.600 298.430 C 273.600 300.903,274.186 301.200,279.064 301.200 C 283.333 301.200,283.600 301.153,283.600 300.400 C 283.600 299.722,283.867 299.600,285.345 299.600 C 286.990 299.600,287.078 299.543,286.898 298.600 C 286.714 297.639,286.786 297.600,288.753 297.600 C 290.533 297.600,290.800 297.496,290.800 296.800 C 290.800 296.267,291.067 296.000,291.600 296.000 C 292.124 296.000,292.400 295.733,292.400 295.228 C 292.400 294.732,292.722 294.410,293.300 294.328 C 293.878 294.246,294.246 293.878,294.328 293.300 C 294.410 292.722,294.732 292.400,295.228 292.400 C 295.733 292.400,296.000 292.124,296.000 291.600 C 296.000 291.067,296.267 290.800,296.800 290.800 C 297.481 290.800,297.600 290.533,297.600 289.000 C 297.600 287.332,297.675 287.200,298.633 287.200 L 299.665 287.200 299.558 283.300 C 299.454 279.515,299.477 279.401,300.326 279.432 C 301.135 279.461,301.200 279.278,301.200 276.961 L 301.200 274.458 298.900 274.177 C 288.294 272.886,287.642 259.081,298.100 257.239 L 301.200 256.693 301.200 254.170 C 301.200 251.300,301.188 251.286,298.213 250.802 C 295.926 250.430,295.704 250.305,293.214 248.000 C 287.573 242.778,292.388 232.800,300.548 232.800 C 301.084 232.800,301.200 232.336,301.200 230.200 L 301.200 227.600 299.587 227.600 C 298.638 227.600,297.119 227.167,295.900 226.549 C 287.204 222.143,289.618 211.048,299.563 209.714 L 301.200 209.495 301.200 206.947 C 301.200 204.437,301.184 204.400,300.100 204.391 C 299.495 204.386,298.215 204.026,297.256 203.591 C 296.297 203.156,295.299 202.800,295.037 202.800 C 294.776 202.800,293.905 202.125,293.101 201.300 C 288.281 196.355,291.207 187.681,298.055 186.614 C 301.317 186.105,301.200 186.233,301.200 183.173 L 301.200 180.400 300.020 180.400 C 291.315 180.400,287.379 171.185,293.655 165.500 C 294.809 164.455,296.064 163.600,296.446 163.600 C 296.827 163.600,298.053 163.389,299.169 163.131 L 301.200 162.663 301.200 159.978 C 301.200 157.023,301.001 156.818,298.126 156.805 C 296.197 156.797,294.991 156.198,293.210 154.363 C 288.098 149.095,290.807 141.218,298.140 140.036 L 301.200 139.542 301.200 136.803 C 301.200 133.743,301.511 134.020,297.366 133.397 C 291.844 132.568,288.752 124.825,292.095 120.200 C 293.703 117.976,299.564 115.036,300.831 115.819 C 301.045 115.952,301.200 114.612,301.200 112.624 C 301.200 110.741,301.065 109.221,300.900 109.247 C 299.770 109.426,299.600 109.080,299.600 106.600 C 299.600 104.093,299.564 104.000,298.600 104.000 C 297.681 104.000,297.600 103.853,297.600 102.200 C 297.600 100.667,297.481 100.400,296.800 100.400 C 296.119 100.400,296.000 100.133,296.000 98.600 C 296.000 97.067,295.881 96.800,295.200 96.800 C 294.667 96.800,294.400 96.533,294.400 96.000 C 294.400 95.307,294.133 95.200,292.400 95.200 C 290.533 95.200,290.400 95.133,290.400 94.200 C 290.400 93.467,290.187 93.200,289.600 93.200 C 289.067 93.200,288.800 92.933,288.800 92.400 C 288.800 91.719,288.533 91.600,287.000 91.600 C 285.347 91.600,285.200 91.519,285.200 90.600 C 285.200 89.636,285.107 89.600,282.600 89.600 C 280.267 89.600,280.000 89.518,280.000 88.800 C 280.000 88.083,279.733 88.000,277.424 88.000 C 274.526 88.000,274.532 87.995,274.015 90.720 C 271.979 101.455,257.950 100.653,256.183 89.700 L 255.909 88.000 253.410 88.000 L 250.911 88.000 250.666 90.070 C 250.531 91.208,250.251 92.245,250.042 92.374 C 249.834 92.503,249.543 93.087,249.396 93.673 C 248.321 97.959,240.424 99.839,236.522 96.738 C 234.717 95.304,232.840 91.637,232.816 89.500 L 232.800 88.000 230.057 88.000 C 227.334 88.000,227.315 88.008,227.305 89.100 C 227.293 90.578,225.992 94.015,224.988 95.223 C 220.083 101.123,210.893 98.465,209.595 90.770 L 209.128 88.000 206.400 88.000 L 203.673 88.000 203.165 90.900 C 202.189 96.467,198.768 98.938,193.027 98.221 C 190.418 97.895,187.050 94.962,186.668 92.684 C 186.550 91.978,186.335 90.635,186.191 89.700 L 185.930 88.000 183.198 88.000 L 180.466 88.000 180.033 90.020 C 179.795 91.131,179.600 92.374,179.600 92.784 C 179.600 93.193,178.655 94.511,177.500 95.713 C 171.908 101.532,162.800 97.510,162.800 89.223 L 162.800 88.000 160.027 88.000 C 156.973 88.000,157.093 87.892,156.596 91.088 C 156.452 92.017,155.989 93.215,155.567 93.751 C 155.145 94.287,154.800 94.901,154.800 95.116 C 154.800 96.772,149.850 98.612,146.499 98.200 C 144.289 97.929,140.400 95.400,140.400 94.234 C 140.400 93.934,140.044 92.903,139.609 91.944 C 139.174 90.985,138.814 89.705,138.809 89.100 C 138.800 88.016,138.763 88.000,136.252 88.000 L 133.703 88.000 133.438 90.001 C 131.955 101.175,115.600 100.756,115.600 89.544 L 115.600 88.000 112.655 88.000 C 109.750 88.000,109.713 88.013,109.897 88.975 M295.529 98.133 C 295.617 98.583,295.389 98.800,294.829 98.800 C 294.373 98.800,294.000 98.560,294.000 98.267 C 294.000 97.042,295.296 96.928,295.529 98.133 M89.833 101.057 C 89.483 101.969,89.680 101.992,90.500 101.133 C 91.033 100.575,91.067 100.400,90.643 100.400 C 90.336 100.400,89.972 100.696,89.833 101.057 M254.018 116.040 C 254.558 116.391,255.657 116.801,256.459 116.950 C 257.262 117.099,258.370 117.576,258.923 118.011 C 259.475 118.445,260.142 118.800,260.405 118.800 C 260.669 118.800,261.400 119.205,262.029 119.700 C 262.659 120.195,263.855 121.129,264.687 121.776 C 265.519 122.422,266.830 123.735,267.600 124.692 C 268.370 125.650,269.315 126.786,269.700 127.217 C 270.085 127.648,270.400 128.235,270.400 128.522 C 270.400 128.810,270.850 129.655,271.400 130.400 C 271.950 131.145,272.401 132.305,272.403 132.978 C 272.404 133.650,272.763 134.740,273.200 135.400 C 274.455 137.295,274.455 252.963,273.200 255.304 C 272.760 256.125,272.400 257.149,272.400 257.580 C 272.400 258.536,271.585 260.400,271.168 260.400 C 271.000 260.400,270.745 260.941,270.599 261.603 C 270.454 262.265,269.990 262.991,269.567 263.217 C 269.145 263.443,268.800 263.859,268.800 264.142 C 268.800 264.425,268.395 265.039,267.900 265.507 C 267.405 265.975,266.516 266.863,265.925 267.479 C 265.334 268.096,264.205 269.050,263.416 269.600 C 262.627 270.150,261.526 271.005,260.970 271.500 C 260.414 271.995,259.648 272.400,259.268 272.400 C 258.889 272.400,258.138 272.708,257.601 273.085 C 254.963 274.932,254.135 274.956,194.400 274.969 C 135.179 274.982,133.995 274.949,131.000 273.203 C 130.340 272.818,129.305 272.386,128.700 272.244 C 128.095 272.101,127.600 271.811,127.600 271.598 C 127.600 271.385,126.967 270.946,126.194 270.623 C 125.421 270.300,124.682 269.758,124.552 269.418 C 124.421 269.078,124.104 268.800,123.846 268.800 C 122.819 268.800,117.222 261.680,117.207 260.354 C 117.203 259.999,116.856 259.270,116.435 258.736 C 114.254 255.962,114.229 255.301,114.107 195.279 C 114.033 158.974,114.132 139.701,114.394 139.211 C 114.614 138.800,114.977 137.171,115.202 135.589 C 115.450 133.838,115.920 132.319,116.405 131.703 C 116.842 131.147,117.200 130.384,117.200 130.007 C 117.200 129.631,117.560 128.907,118.000 128.400 C 118.440 127.893,118.801 127.370,118.802 127.239 C 118.803 127.107,119.605 126.100,120.584 125.000 C 122.961 122.331,122.986 122.305,124.063 121.496 C 124.578 121.110,125.566 120.345,126.258 119.796 C 126.950 119.248,127.777 118.800,128.097 118.800 C 128.416 118.800,129.093 118.440,129.600 118.000 C 130.107 117.560,130.810 117.192,131.161 117.182 C 131.513 117.173,132.520 116.881,133.400 116.534 C 136.385 115.357,139.366 115.301,196.218 115.350 C 247.558 115.395,253.130 115.462,254.018 116.040 M151.611 132.294 C 151.068 132.396,150.262 132.731,149.822 133.039 C 149.382 133.348,148.454 133.600,147.760 133.600 C 147.066 133.600,146.290 133.851,146.036 134.157 C 145.781 134.463,144.994 134.945,144.287 135.227 C 142.204 136.059,135.892 142.049,135.372 143.689 C 135.223 144.156,134.764 144.901,134.351 145.345 C 133.938 145.788,133.600 146.484,133.600 146.891 C 133.600 147.299,133.195 148.390,132.700 149.316 L 131.800 151.000 131.800 195.200 L 131.800 239.400 132.700 241.112 C 133.195 242.054,133.600 243.247,133.600 243.763 C 133.600 244.280,133.882 244.936,134.226 245.222 C 134.571 245.508,135.135 246.295,135.481 246.971 C 135.826 247.647,136.354 248.344,136.654 248.520 C 136.954 248.696,137.200 249.041,137.200 249.288 C 137.200 249.853,141.626 254.000,142.229 254.000 C 142.475 254.000,142.987 254.344,143.367 254.764 C 143.748 255.184,144.526 255.645,145.098 255.789 C 145.669 255.932,146.580 256.398,147.122 256.825 C 147.664 257.251,148.669 257.600,149.354 257.600 C 150.039 257.600,152.011 257.870,153.735 258.200 C 158.424 259.097,232.419 259.097,235.865 258.200 C 237.131 257.870,238.916 257.600,239.830 257.600 C 240.843 257.600,241.865 257.309,242.446 256.855 C 242.971 256.445,243.816 255.980,244.325 255.820 C 246.701 255.076,254.000 248.743,254.000 247.426 C 254.000 247.150,254.350 246.607,254.777 246.221 C 255.205 245.834,255.677 244.958,255.828 244.274 C 255.978 243.591,256.483 242.305,256.950 241.416 L 257.800 239.800 257.800 195.200 L 257.800 150.600 256.700 148.361 C 256.095 147.130,255.600 145.834,255.600 145.481 C 255.600 145.128,255.354 144.696,255.054 144.520 C 254.754 144.344,254.223 143.641,253.874 142.958 C 253.124 141.491,247.446 136.084,246.003 135.463 C 245.451 135.226,244.571 134.710,244.046 134.316 C 243.521 133.922,242.621 133.594,242.046 133.586 C 241.471 133.579,240.280 133.225,239.400 132.800 C 237.877 132.064,155.382 131.589,151.611 132.294 " stroke="none" fill="#043343" fill-rule="evenodd"></path><path id="path3" d="M108.300 88.433 C 107.146 89.104,107.447 90.000,108.828 90.000 C 109.861 90.000,110.035 89.862,109.928 89.131 C 109.776 88.099,109.257 87.876,108.300 88.433 M290.400 94.182 C 290.400 95.001,290.595 95.200,291.400 95.200 C 292.884 95.200,292.624 93.538,291.100 93.282 C 290.586 93.196,290.400 93.435,290.400 94.182 M294.275 97.458 C 293.709 98.025,294.029 98.800,294.829 98.800 C 295.389 98.800,295.617 98.583,295.529 98.133 C 295.387 97.397,294.704 97.030,294.275 97.458 M90.700 100.832 C 89.749 101.386,89.814 102.400,90.800 102.400 C 91.387 102.400,91.600 102.133,91.600 101.400 C 91.600 100.265,91.636 100.287,90.700 100.832 M137.200 115.602 C 135.990 115.768,134.280 116.187,133.400 116.534 C 132.520 116.881,131.513 117.173,131.161 117.182 C 130.810 117.192,130.107 117.560,129.600 118.000 C 129.093 118.440,128.416 118.800,128.097 118.800 C 127.777 118.800,126.950 119.248,126.258 119.796 C 125.566 120.345,124.578 121.110,124.063 121.496 C 122.986 122.305,122.961 122.331,120.584 125.000 C 119.605 126.100,118.803 127.107,118.802 127.239 C 118.801 127.370,118.440 127.893,118.000 128.400 C 117.560 128.907,117.200 129.631,117.200 130.007 C 117.200 130.384,116.842 131.147,116.405 131.703 C 115.920 132.319,115.450 133.838,115.202 135.589 C 114.977 137.171,114.614 138.800,114.394 139.211 C 114.132 139.701,114.033 158.974,114.107 195.279 C 114.229 255.301,114.254 255.962,116.435 258.736 C 116.856 259.270,117.203 259.999,117.207 260.354 C 117.222 261.680,122.819 268.800,123.846 268.800 C 124.104 268.800,124.421 269.078,124.552 269.418 C 124.682 269.758,125.421 270.300,126.194 270.623 C 126.967 270.946,127.600 271.385,127.600 271.598 C 127.600 271.811,128.095 272.101,128.700 272.244 C 129.305 272.386,130.340 272.818,131.000 273.203 C 133.995 274.949,135.179 274.982,194.400 274.969 C 254.135 274.956,254.963 274.932,257.601 273.085 C 258.138 272.708,258.889 272.400,259.268 272.400 C 259.648 272.400,260.414 271.995,260.970 271.500 C 261.526 271.005,262.627 270.150,263.416 269.600 C 264.205 269.050,265.334 268.096,265.925 267.479 C 266.516 266.863,267.405 265.975,267.900 265.507 C 268.395 265.039,268.800 264.425,268.800 264.142 C 268.800 263.859,269.145 263.443,269.567 263.217 C 269.990 262.991,270.454 262.265,270.599 261.603 C 270.745 260.941,271.000 260.400,271.168 260.400 C 271.585 260.400,272.400 258.536,272.400 257.580 C 272.400 257.149,272.760 256.125,273.200 255.304 C 274.455 252.963,274.455 137.295,273.200 135.400 C 272.763 134.740,272.404 133.650,272.403 132.978 C 272.401 132.305,271.950 131.145,271.400 130.400 C 270.850 129.655,270.400 128.810,270.400 128.522 C 270.400 128.235,270.085 127.648,269.700 127.217 C 269.315 126.786,268.370 125.650,267.600 124.692 C 266.830 123.735,265.519 122.422,264.687 121.776 C 263.855 121.129,262.659 120.195,262.029 119.700 C 261.400 119.205,260.669 118.800,260.405 118.800 C 260.142 118.800,259.475 118.445,258.923 118.011 C 258.370 117.576,257.262 117.099,256.459 116.950 C 255.657 116.801,254.558 116.391,254.018 116.040 C 252.952 115.346,142.106 114.931,137.200 115.602 M251.616 116.953 C 252.817 117.256,254.510 117.631,255.379 117.785 C 256.247 117.940,257.396 118.411,257.933 118.833 C 258.469 119.255,259.170 119.600,259.491 119.600 C 260.648 119.600,268.397 126.483,268.399 127.513 C 268.400 127.794,268.670 128.129,269.000 128.255 C 269.330 128.382,269.600 128.689,269.600 128.937 C 269.600 129.185,270.029 130.291,270.552 131.394 C 271.076 132.497,271.893 135.020,272.367 137.000 L 273.229 140.600 273.115 196.200 C 273.005 249.383,272.967 251.922,272.240 254.600 C 271.428 257.589,269.286 262.400,268.767 262.400 C 268.595 262.400,268.336 262.772,268.191 263.227 C 267.932 264.043,264.565 267.544,262.739 268.895 C 260.443 270.595,258.713 271.600,258.082 271.601 C 257.707 271.602,256.770 272.007,256.000 272.501 L 254.600 273.400 194.200 273.400 L 133.800 273.400 132.215 272.500 C 131.344 272.005,130.407 271.600,130.133 271.600 C 129.682 271.600,128.374 270.820,125.600 268.894 C 124.313 268.001,121.599 265.287,120.706 264.000 C 118.687 261.092,117.986 259.877,117.757 258.890 C 117.618 258.290,117.256 257.402,116.953 256.915 C 115.722 254.941,115.616 250.030,115.616 195.200 C 115.616 140.173,115.713 135.810,116.986 133.367 C 117.321 132.725,117.596 131.920,117.598 131.578 C 117.599 131.235,118.050 130.345,118.600 129.600 C 119.150 128.855,119.600 128.075,119.600 127.868 C 119.600 127.661,120.005 127.092,120.500 126.604 C 120.995 126.116,121.940 125.089,122.600 124.322 C 124.823 121.738,131.787 117.630,134.032 117.577 C 134.564 117.565,135.630 117.316,136.400 117.025 C 138.524 116.221,248.452 116.152,251.616 116.953 M151.510 131.233 C 150.250 131.418,148.810 131.828,148.310 132.145 C 147.809 132.462,146.834 132.839,146.141 132.983 C 145.449 133.127,144.566 133.595,144.179 134.023 C 143.793 134.450,143.150 134.800,142.752 134.800 C 142.354 134.800,141.835 135.160,141.600 135.600 C 141.365 136.040,140.953 136.405,140.686 136.411 C 139.357 136.440,133.732 143.207,132.998 145.659 C 132.843 146.176,132.447 147.027,132.117 147.549 C 130.776 149.671,130.667 152.822,130.526 193.564 C 130.375 237.181,130.485 240.151,132.368 243.241 C 132.824 243.988,133.198 244.887,133.199 245.239 C 133.199 245.590,133.515 246.269,133.900 246.748 C 134.285 247.227,135.500 248.777,136.600 250.193 C 137.700 251.608,138.759 252.774,138.954 252.783 C 139.149 252.792,139.718 253.205,140.219 253.700 C 142.414 255.869,147.036 258.396,148.811 258.398 C 149.367 258.399,150.267 258.715,150.811 259.100 C 151.738 259.756,154.482 259.800,194.600 259.800 C 234.608 259.800,237.484 259.754,238.680 259.100 C 239.384 258.715,240.417 258.400,240.974 258.400 C 242.009 258.400,246.433 256.285,247.667 255.200 C 248.042 254.870,248.835 254.240,249.429 253.800 C 250.782 252.797,252.332 251.259,253.502 249.758 C 253.998 249.121,254.825 248.060,255.341 247.400 C 255.857 246.740,256.405 245.683,256.559 245.052 C 256.713 244.420,257.084 243.659,257.383 243.360 C 257.682 243.061,258.049 242.047,258.197 241.108 C 258.346 240.169,258.722 238.512,259.034 237.427 C 259.887 234.455,259.875 156.107,259.020 152.826 C 258.701 151.602,258.334 149.931,258.205 149.113 C 258.075 148.295,257.733 147.390,257.445 147.102 C 257.157 146.814,256.700 145.908,256.429 145.089 C 256.159 144.270,255.774 143.600,255.574 143.600 C 255.374 143.600,254.956 143.015,254.644 142.300 C 253.828 140.426,248.029 134.800,246.914 134.800 C 246.717 134.800,245.945 134.350,245.200 133.800 C 244.455 133.250,243.470 132.800,243.011 132.800 C 242.553 132.800,241.795 132.532,241.327 132.204 C 240.858 131.876,239.243 131.429,237.738 131.212 C 234.381 130.726,154.832 130.746,151.510 131.233 M239.400 132.800 C 240.280 133.225,241.471 133.579,242.046 133.586 C 242.621 133.594,243.521 133.922,244.046 134.316 C 244.571 134.710,245.451 135.226,246.003 135.463 C 247.446 136.084,253.124 141.491,253.874 142.958 C 254.223 143.641,254.754 144.344,255.054 144.520 C 255.354 144.696,255.600 145.128,255.600 145.481 C 255.600 145.834,256.095 147.130,256.700 148.361 L 257.800 150.600 257.800 195.200 L 257.800 239.800 256.950 241.416 C 256.483 242.305,255.978 243.591,255.828 244.274 C 255.677 244.958,255.205 245.834,254.777 246.221 C 254.350 246.607,254.000 247.150,254.000 247.426 C 254.000 248.743,246.701 255.076,244.325 255.820 C 243.816 255.980,242.971 256.445,242.446 256.855 C 241.865 257.309,240.843 257.600,239.830 257.600 C 238.916 257.600,237.131 257.870,235.865 258.200 C 232.419 259.097,158.424 259.097,153.735 258.200 C 152.011 257.870,150.039 257.600,149.354 257.600 C 148.669 257.600,147.664 257.251,147.122 256.825 C 146.580 256.398,145.669 255.932,145.098 255.789 C 144.526 255.645,143.748 255.184,143.367 254.764 C 142.987 254.344,142.475 254.000,142.229 254.000 C 141.626 254.000,137.200 249.853,137.200 249.288 C 137.200 249.041,136.954 248.696,136.654 248.520 C 136.354 248.344,135.826 247.647,135.481 246.971 C 135.135 246.295,134.571 245.508,134.226 245.222 C 133.882 244.936,133.600 244.280,133.600 243.763 C 133.600 243.247,133.195 242.054,132.700 241.112 L 131.800 239.400 131.800 195.200 L 131.800 151.000 132.700 149.316 C 133.195 148.390,133.600 147.299,133.600 146.891 C 133.600 146.484,133.938 145.788,134.351 145.345 C 134.764 144.901,135.223 144.156,135.372 143.689 C 135.892 142.049,142.204 136.059,144.287 135.227 C 144.994 134.945,145.781 134.463,146.036 134.157 C 146.290 133.851,147.066 133.600,147.760 133.600 C 148.454 133.600,149.382 133.348,149.822 133.039 C 151.149 132.110,151.146 132.110,195.200 132.068 C 236.527 132.028,237.848 132.050,239.400 132.800 M299.457 279.508 C 299.039 280.185,299.689 281.642,300.352 281.514 C 301.229 281.345,301.216 279.453,300.337 279.283 C 299.973 279.213,299.576 279.314,299.457 279.508 M286.800 298.333 C 286.800 299.373,287.189 299.634,288.053 299.172 C 289.150 298.585,288.991 297.600,287.800 297.600 C 287.097 297.600,286.800 297.818,286.800 298.333 " stroke="none" fill="#84949c" fill-rule="evenodd"></path><path id="path4" d="M233.600 78.000 C 233.600 84.400,233.456 88.000,233.200 88.000 C 231.501 88.000,234.087 94.803,236.522 96.738 C 240.424 99.839,248.321 97.959,249.396 93.673 C 249.543 93.087,249.834 92.503,250.042 92.374 C 250.790 91.911,250.988 88.000,250.263 88.000 C 249.884 88.000,249.511 88.456,249.364 89.100 C 248.251 93.978,248.183 94.125,246.271 95.745 C 242.201 99.195,236.617 97.421,234.805 92.104 C 234.016 89.789,233.957 88.822,233.987 78.804 C 234.005 72.862,233.925 68.000,233.810 68.000 C 233.694 68.000,233.600 72.500,233.600 78.000 M185.829 79.600 C 185.923 92.380,186.293 93.942,189.946 97.016 C 193.921 100.361,202.220 97.360,202.927 92.322 C 203.060 91.375,203.296 89.970,203.452 89.200 C 203.710 87.925,203.675 87.849,203.067 88.349 C 202.700 88.651,202.400 89.393,202.400 89.999 C 202.400 91.932,201.917 93.600,201.358 93.600 C 201.059 93.600,200.702 94.050,200.564 94.600 C 200.426 95.150,200.119 95.600,199.882 95.600 C 199.645 95.600,199.050 95.977,198.560 96.438 C 197.241 97.677,192.371 97.688,191.059 96.456 C 190.558 95.985,189.947 95.600,189.701 95.600 C 189.455 95.600,189.127 95.195,188.972 94.700 C 188.817 94.205,188.355 93.371,187.945 92.846 C 187.535 92.321,187.200 91.326,187.200 90.635 C 187.200 89.944,186.933 88.998,186.608 88.532 C 186.139 87.864,185.989 85.860,185.887 78.943 L 185.759 70.200 185.829 79.600 M115.600 89.544 C 115.600 100.756,131.955 101.175,133.438 90.001 C 133.959 86.072,132.184 87.307,131.574 91.297 C 130.362 99.237,118.412 99.410,117.409 91.502 C 116.921 87.654,115.600 86.225,115.600 89.544 M138.809 89.100 C 138.814 89.705,139.174 90.985,139.609 91.944 C 140.044 92.903,140.400 93.934,140.400 94.234 C 140.400 95.400,144.289 97.929,146.499 98.200 C 149.882 98.616,154.800 96.769,154.800 95.084 C 154.800 94.852,155.101 94.330,155.469 93.923 C 156.067 93.263,157.360 88.427,157.028 88.094 C 156.700 87.767,155.600 89.346,155.600 90.144 C 155.600 90.632,155.240 91.737,154.800 92.600 C 154.360 93.463,154.000 94.401,154.000 94.685 C 154.000 94.968,153.834 95.200,153.631 95.200 C 153.428 95.200,152.746 95.634,152.116 96.163 C 150.982 97.118,149.380 97.426,146.400 97.264 C 144.003 97.133,141.367 94.378,140.835 91.445 C 140.257 88.266,138.789 86.566,138.809 89.100 M162.813 89.123 C 162.733 97.418,171.869 101.572,177.442 95.773 C 179.101 94.047,179.532 93.306,179.735 91.824 C 179.872 90.821,180.108 89.505,180.259 88.900 C 180.501 87.929,180.458 87.861,179.898 88.323 C 179.548 88.611,179.141 89.564,178.993 90.441 C 178.700 92.175,176.956 95.600,176.366 95.600 C 176.165 95.600,175.640 95.960,175.200 96.400 C 173.966 97.634,169.185 97.651,167.800 96.426 C 167.360 96.037,166.685 95.608,166.300 95.472 C 165.915 95.336,165.600 94.958,165.600 94.632 C 165.600 94.306,165.326 93.886,164.990 93.699 C 164.628 93.496,164.281 92.516,164.135 91.279 C 163.827 88.679,162.833 87.057,162.813 89.123 M209.200 88.218 C 209.200 99.278,222.880 102.441,226.521 92.223 C 227.620 89.137,227.638 89.042,227.222 88.403 C 226.589 87.432,225.908 88.494,225.570 90.979 C 224.841 96.357,218.225 99.480,214.393 96.256 C 213.703 95.675,212.999 95.200,212.829 95.200 C 212.445 95.200,210.397 90.439,210.399 89.549 C 210.399 89.191,210.130 88.674,209.800 88.400 C 209.470 88.126,209.200 88.044,209.200 88.218 M256.154 89.603 C 257.916 100.624,271.970 101.503,274.015 90.720 C 274.222 89.630,274.494 88.572,274.619 88.369 C 274.745 88.166,274.667 88.000,274.446 88.000 C 273.917 88.000,272.800 89.616,272.800 90.381 C 272.800 91.228,271.116 95.200,270.757 95.200 C 270.594 95.200,269.946 95.634,269.316 96.163 C 268.179 97.121,266.627 97.418,263.532 97.270 C 261.328 97.165,258.548 94.273,258.169 91.692 C 257.779 89.040,257.326 88.000,256.559 88.000 C 256.011 88.000,255.942 88.276,256.154 89.603 M297.377 116.557 C 291.970 118.438,289.526 122.658,291.046 127.489 C 291.916 130.258,294.875 133.023,297.366 133.397 C 298.265 133.532,299.536 133.747,300.192 133.873 C 301.259 134.080,301.328 134.036,300.843 133.452 C 300.546 133.093,299.961 132.800,299.544 132.800 C 290.467 132.800,289.228 118.427,298.241 117.680 C 300.367 117.504,301.507 116.820,301.011 116.018 C 300.680 115.482,300.310 115.537,297.377 116.557 M88.400 117.000 C 88.674 117.330,89.389 117.600,89.989 117.600 C 91.389 117.600,93.600 118.367,93.600 118.852 C 93.600 119.058,93.971 119.363,94.424 119.531 C 96.023 120.122,97.290 124.863,96.362 126.783 C 95.943 127.651,95.600 128.516,95.600 128.706 C 95.600 129.775,90.981 132.800,89.349 132.800 C 88.874 132.800,88.391 133.046,88.276 133.347 C 87.489 135.397,94.948 132.241,96.034 130.064 C 96.327 129.479,96.843 128.666,97.183 128.258 C 98.960 126.122,97.677 121.087,94.638 118.270 C 93.057 116.805,87.259 115.625,88.400 117.000 M88.352 140.142 C 88.657 140.509,89.481 140.800,90.218 140.800 C 91.011 140.800,91.991 141.173,92.669 141.732 C 93.291 142.244,94.110 142.777,94.488 142.915 C 94.867 143.053,95.295 143.668,95.439 144.283 C 95.584 144.897,96.057 145.990,96.490 146.711 C 97.277 148.019,97.277 148.024,96.439 149.806 C 95.978 150.788,95.600 151.832,95.600 152.126 C 95.600 153.244,91.663 156.000,90.065 156.000 C 89.423 156.000,88.674 156.270,88.400 156.600 C 87.972 157.116,88.076 157.172,89.151 157.000 C 89.838 156.890,90.947 156.713,91.615 156.607 C 99.634 155.333,99.542 141.620,91.505 140.349 C 90.437 140.181,89.169 139.917,88.685 139.764 C 87.905 139.516,87.868 139.559,88.352 140.142 M297.326 140.166 C 292.512 141.116,289.608 145.872,290.974 150.571 C 291.753 153.248,294.543 156.266,296.517 156.564 C 301.068 157.252,301.344 157.256,300.812 156.614 C 300.527 156.271,299.662 155.997,298.851 155.994 C 298.053 155.991,296.950 155.729,296.400 155.411 C 295.850 155.094,294.995 154.651,294.500 154.427 C 294.005 154.203,293.600 153.754,293.600 153.430 C 293.600 153.105,293.285 152.663,292.900 152.448 C 292.313 152.119,292.200 151.466,292.200 148.400 C 292.200 145.334,292.313 144.681,292.900 144.352 C 293.285 144.137,293.600 143.699,293.600 143.380 C 293.600 143.061,293.780 142.800,294.000 142.800 C 294.220 142.800,294.772 142.428,295.227 141.973 C 295.793 141.407,296.826 141.059,298.495 140.873 C 299.877 140.718,301.007 140.383,301.101 140.100 C 301.299 139.502,300.634 139.514,297.326 140.166 M88.744 163.567 C 89.264 164.025,90.097 164.400,90.595 164.400 C 91.094 164.400,91.726 164.670,92.000 165.000 C 92.274 165.330,92.718 165.600,92.988 165.600 C 93.962 165.600,95.144 167.078,96.152 169.558 L 97.180 172.088 96.390 173.822 C 95.955 174.776,95.600 175.716,95.600 175.911 C 95.600 176.789,92.245 178.916,90.563 179.105 C 88.702 179.315,87.167 180.400,88.731 180.400 C 99.262 180.400,101.229 165.114,90.910 163.464 C 90.008 163.320,88.939 163.096,88.535 162.967 C 87.960 162.784,88.006 162.914,88.744 163.567 M297.695 163.359 C 287.022 165.634,289.079 180.400,300.069 180.400 C 302.250 180.400,300.633 179.318,298.143 179.112 C 296.615 178.985,295.784 178.715,295.531 178.263 C 295.327 177.898,294.933 177.600,294.655 177.600 C 292.215 177.600,291.094 169.287,293.248 167.170 C 294.793 165.652,296.882 164.524,298.726 164.213 C 300.430 163.925,302.011 162.747,300.549 162.855 C 300.137 162.886,298.853 163.112,297.695 163.359 M88.085 186.387 C 88.497 187.046,92.075 188.800,93.009 188.800 C 93.424 188.800,95.600 190.957,95.600 191.368 C 95.600 191.501,95.972 192.400,96.427 193.368 L 97.254 195.126 96.427 196.941 C 95.972 197.939,95.600 199.040,95.600 199.387 C 95.600 199.733,95.150 200.222,94.600 200.473 C 94.050 200.723,93.600 201.158,93.600 201.440 C 93.600 201.748,92.846 202.050,91.700 202.200 C 88.564 202.610,86.414 204.000,88.915 204.000 C 91.305 204.000,96.400 201.186,96.400 199.865 C 96.400 199.644,96.681 199.152,97.025 198.773 C 99.900 195.596,95.532 186.934,91.000 186.824 C 90.340 186.808,89.313 186.541,88.717 186.230 C 87.705 185.702,87.663 185.712,88.085 186.387 M298.400 186.544 C 292.769 187.712,289.680 192.259,291.018 197.409 C 291.632 199.774,293.888 202.800,295.037 202.800 C 295.299 202.800,296.297 203.156,297.256 203.591 C 299.387 204.558,301.200 204.650,301.200 203.790 C 301.200 203.014,299.598 202.400,297.572 202.400 C 296.201 202.400,295.732 202.130,293.960 200.321 L 291.924 198.242 292.062 194.944 C 292.179 192.141,292.335 191.519,293.100 190.807 C 293.595 190.346,294.000 189.810,294.000 189.615 C 294.000 189.421,294.675 189.046,295.500 188.783 C 296.325 188.519,297.171 188.145,297.380 187.952 C 297.589 187.758,298.186 187.600,298.706 187.600 C 299.826 187.600,301.200 186.931,301.200 186.386 C 301.200 185.945,301.315 185.939,298.400 186.544 M88.000 209.737 C 88.000 210.572,88.788 211.085,90.885 211.613 C 95.096 212.673,98.151 217.621,96.384 220.519 C 95.954 221.224,95.602 222.039,95.601 222.331 C 95.599 223.244,93.313 225.198,91.926 225.471 C 89.394 225.971,88.000 226.757,88.000 227.685 C 88.000 228.366,88.107 228.453,88.480 228.080 C 88.744 227.816,89.239 227.598,89.580 227.596 C 94.909 227.563,100.204 218.740,97.012 215.214 C 96.676 214.841,96.400 214.360,96.400 214.143 C 96.400 213.117,91.849 210.000,90.351 210.000 C 89.909 210.000,89.199 209.814,88.774 209.586 C 88.178 209.267,88.000 209.302,88.000 209.737 M297.600 210.175 C 294.304 211.446,293.735 211.792,292.526 213.269 C 288.006 218.786,292.348 227.600,299.587 227.600 C 302.950 227.600,301.598 226.286,297.731 225.796 C 292.512 225.134,289.943 218.422,293.258 214.108 C 294.525 212.460,294.934 212.276,299.396 211.336 C 300.426 211.119,301.039 210.752,301.125 210.300 C 301.291 209.431,299.678 209.374,297.600 210.175 M296.858 233.849 C 290.366 236.294,288.480 243.617,293.214 248.000 C 295.704 250.305,295.926 250.430,298.213 250.802 C 299.422 250.999,300.589 251.270,300.806 251.404 C 301.023 251.538,301.200 251.493,301.200 251.304 C 301.200 250.579,300.187 250.000,298.920 250.000 C 298.194 250.000,297.600 249.819,297.600 249.598 C 297.600 249.378,296.790 248.980,295.800 248.716 C 294.810 248.451,294.000 248.012,294.000 247.740 C 294.000 247.468,293.617 246.977,293.148 246.649 C 292.245 246.016,291.613 241.564,292.138 239.532 C 292.790 237.007,296.026 234.800,299.074 234.800 C 299.777 234.800,300.464 234.620,300.600 234.400 C 300.752 234.154,304.807 233.964,311.124 233.907 L 321.400 233.814 311.300 233.700 C 305.028 233.629,301.200 233.437,301.200 233.193 C 301.200 232.572,299.612 232.811,296.858 233.849 M78.000 233.600 L 67.800 233.821 78.076 233.910 C 84.396 233.965,88.448 234.154,88.600 234.400 C 88.736 234.620,89.350 234.800,89.964 234.800 C 91.379 234.800,93.600 235.562,93.600 236.048 C 93.600 236.251,94.050 236.622,94.600 236.873 C 95.154 237.125,95.600 237.666,95.600 238.086 C 95.600 238.503,95.954 239.622,96.388 240.573 C 97.171 242.292,97.171 242.310,96.388 243.931 C 95.954 244.828,95.600 245.742,95.600 245.962 C 95.600 246.779,93.687 248.228,91.378 249.161 C 90.070 249.690,88.775 250.297,88.500 250.510 C 87.706 251.126,87.918 251.672,88.774 251.214 C 89.199 250.986,89.966 250.800,90.478 250.800 C 94.965 250.800,100.530 240.671,97.098 238.751 C 96.714 238.536,96.400 238.126,96.400 237.839 C 96.400 236.316,90.926 233.011,88.864 233.290 C 88.499 233.339,83.610 233.479,78.000 233.600 M88.744 257.567 C 89.286 258.045,90.240 258.400,90.982 258.400 C 91.762 258.400,92.560 258.714,92.991 259.190 C 93.384 259.624,94.033 260.083,94.432 260.210 C 94.832 260.337,95.280 260.837,95.427 261.320 C 95.575 261.804,96.028 262.943,96.435 263.851 C 97.160 265.467,97.159 265.535,96.388 267.131 C 95.954 268.028,95.600 269.009,95.600 269.311 C 95.600 270.460,91.586 273.200,89.902 273.200 C 89.350 273.200,88.674 273.470,88.400 273.800 C 88.126 274.130,87.969 274.399,88.051 274.398 C 93.361 274.315,97.343 270.861,97.888 265.864 C 98.293 262.155,94.961 257.937,91.235 257.442 C 90.110 257.293,88.877 257.073,88.495 256.952 C 87.998 256.795,88.069 256.970,88.744 257.567 M297.055 257.415 C 289.649 259.028,288.308 269.087,294.983 272.959 C 296.931 274.089,301.935 274.846,300.624 273.812 C 300.196 273.475,299.386 273.199,298.824 273.199 C 298.261 273.198,297.211 272.838,296.490 272.399 C 295.770 271.959,294.915 271.600,294.590 271.600 C 294.266 271.600,294.000 271.420,294.000 271.200 C 294.000 270.980,293.595 270.395,293.100 269.900 C 292.306 269.106,292.200 268.594,292.200 265.555 L 292.200 262.110 294.164 260.255 C 295.710 258.794,296.433 258.392,297.564 258.360 C 299.502 258.306,300.906 257.881,301.104 257.289 C 301.303 256.691,300.223 256.725,297.055 257.415 M121.588 292.533 C 118.403 294.056,117.004 295.796,115.666 299.900 C 115.331 300.926,115.353 301.200,115.772 301.200 C 116.605 301.200,117.142 300.308,117.603 298.161 C 118.119 295.754,119.799 294.228,122.629 293.593 C 124.887 293.087,128.719 293.724,129.080 294.664 C 129.206 294.993,129.712 295.415,130.205 295.602 C 130.893 295.863,131.168 296.390,131.390 297.871 C 131.768 300.394,132.159 301.061,133.402 301.298 C 134.346 301.479,134.379 301.440,133.814 300.816 C 133.476 300.442,133.192 299.791,133.182 299.369 C 133.069 294.558,126.030 290.409,121.588 292.533 M144.833 292.588 C 141.249 294.470,137.897 299.630,139.329 301.063 C 139.875 301.608,140.708 300.294,140.900 298.585 C 141.321 294.857,145.379 292.572,149.870 293.535 C 151.909 293.972,154.396 295.796,154.404 296.860 C 154.411 297.744,156.157 300.928,156.739 301.117 C 157.164 301.256,157.185 301.120,156.839 300.473 C 156.597 300.022,156.400 299.273,156.400 298.810 C 156.400 298.347,155.998 297.390,155.507 296.684 C 152.271 292.030,148.588 290.617,144.833 292.588 M168.200 292.592 C 164.818 294.158,161.482 299.616,162.987 301.120 C 163.365 301.499,163.883 300.488,164.152 298.845 C 164.750 295.184,168.460 292.921,172.953 293.476 C 174.995 293.728,177.600 295.510,177.600 296.654 C 177.600 296.968,177.870 297.329,178.200 297.455 C 178.530 297.582,178.800 298.128,178.800 298.669 C 178.800 299.812,179.460 301.200,180.004 301.200 C 180.235 301.200,180.230 300.804,179.990 300.174 C 179.776 299.610,179.600 298.683,179.600 298.115 C 179.600 294.004,172.538 290.582,168.200 292.592 M191.757 292.584 C 189.007 293.870,186.912 296.361,186.566 298.753 C 186.419 299.769,186.139 300.802,185.942 301.050 C 185.746 301.297,185.637 305.977,185.700 311.450 L 185.815 321.400 185.907 311.343 C 185.981 303.302,186.109 301.244,186.543 301.077 C 186.842 300.962,187.204 300.133,187.348 299.234 C 187.492 298.335,187.784 297.600,187.997 297.600 C 188.210 297.600,188.494 297.163,188.628 296.629 C 188.986 295.203,191.461 293.668,193.600 293.545 C 197.929 293.297,198.072 293.356,201.260 296.706 C 201.624 297.088,202.077 298.196,202.267 299.169 C 202.457 300.142,202.836 301.012,203.110 301.103 C 203.487 301.229,203.510 301.015,203.203 300.208 C 202.981 299.625,202.800 298.557,202.800 297.835 C 202.800 293.854,195.977 290.609,191.757 292.584 M215.376 292.530 C 211.750 294.471,208.054 299.787,209.396 301.129 C 209.683 301.416,210.400 300.751,210.400 300.198 C 210.400 297.834,213.707 294.140,216.326 293.579 C 220.911 292.595,224.886 294.823,225.482 298.710 C 225.772 300.597,226.400 301.500,226.857 300.684 C 227.040 300.357,226.857 299.250,226.425 298.068 C 224.543 292.920,219.432 290.359,215.376 292.530 M238.840 292.454 C 235.899 293.831,234.187 295.977,232.897 299.900 C 232.552 300.948,232.577 301.200,233.026 301.200 C 233.799 301.200,234.686 299.699,235.033 297.802 C 236.251 291.148,246.826 291.984,248.939 298.900 C 249.476 300.662,249.821 301.200,250.412 301.200 C 251.240 301.200,251.242 301.212,249.744 297.740 C 249.445 297.046,249.200 296.321,249.200 296.129 C 249.200 295.541,246.753 293.590,244.734 292.567 C 242.423 291.396,241.150 291.371,238.840 292.454 M261.844 292.655 C 258.366 294.464,254.533 301.200,256.981 301.200 C 257.544 301.200,258.393 298.975,258.398 297.487 C 258.402 296.232,260.997 294.049,263.026 293.594 C 267.209 292.657,270.914 294.434,271.921 297.861 C 272.429 299.590,273.764 301.566,274.159 301.174 C 274.397 300.937,273.743 298.632,273.146 297.600 C 272.955 297.270,272.637 296.640,272.439 296.200 C 270.799 292.541,265.481 290.763,261.844 292.655 M233.773 313.000 C 233.773 318.500,233.830 320.805,233.899 318.123 C 233.968 315.441,233.968 310.941,233.899 308.123 C 233.830 305.305,233.774 307.500,233.773 313.000 " stroke="none" fill="#0487b4" fill-rule="evenodd"></path></g></svg>