<?xml version="1.0" encoding="UTF-8"?>
<svg width="100pt" height="100pt" version="1.1" viewBox="0 0 35.278 35.278" xmlns="http://www.w3.org/2000/svg" xmlns:cc="http://creativecommons.org/ns#" xmlns:dc="http://purl.org/dc/elements/1.1/" xmlns:rdf="http://www.w3.org/1999/02/22-rdf-syntax-ns#">
 <metadata>
  <rdf:RDF>
   <cc:Work rdf:about="">
    <dc:format>image/svg+xml</dc:format>
    <dc:type rdf:resource="http://purl.org/dc/dcmitype/StillImage"/>
    <dc:title/>
   </cc:Work>
  </rdf:RDF>
 </metadata>
 <g>
  <text transform="translate(-5.8004 -19.1)" fill="#000000" font-family="Hack" font-size="10.583px" style="line-height:1.25;shape-inside:url(#rect31);white-space:pre" xml:space="preserve"/>
  <path d="m6.1361 17.706v-14.985h24.516v29.969h-24.516zm9.0534 12.734c-0.0013-0.0408-0.40446-0.47476-0.896-0.96436l-0.89371-0.89018 0.95302-0.0286c1.2339-0.03703 1.4939 0.07618 2.594 1.1292l0.86503 0.82806h5.3161c2.9238 0 5.3161-0.02625 5.3161-0.05834s-0.34787-0.40339-0.77304-0.82511l-0.77304-0.76677v-3.493h3.0063l-0.07706-0.37091c-0.12947-0.6232-0.92188-1.8735-1.4042-2.2156-0.43791-0.31063-1.0794-0.56603-1.4422-0.57418-0.18249-0.0041-0.19326-0.46757-0.19326-8.3126v-8.3083h-16.123v10.188l2.7056-0.0056 0.93869-1.2935c1.0035-1.3829 1.6631-2.0011 2.3056-2.1609 0.22004-0.05474 1.6176-0.0988 3.1057-0.09791 3.6831 0.0022 3.4979-0.08327 4.9593 2.2888 0.97241 1.5784 1.0705 1.9315 0.6649 2.3933-0.26362 0.30016-0.79164 0.35164-1.1703 0.1141-0.12846-0.08058-0.6235-0.77047-1.1001-1.5331l-0.86654-1.3866h-1.0193c-1.1711 0-1.1256-0.11807-0.4385 1.1374 1.108 2.0246 1.31 2.768 1.5449 5.6872l0.13133 1.632 2.0983 0.08197c2.4568 0.09598 3.0532 0.2146 3.6385 0.72368 0.39324 0.34205 0.82624 1.0168 0.83172 1.2962 0.0019 0.09668-0.8731 0.12364-4.0135 0.12364-3.8837 0-4.0255-0.0067-4.3043-0.20312-0.3816-0.26884-0.46379-0.59885-0.68838-2.7641-0.10439-1.0064-0.21979-1.8601-0.25644-1.8971-0.03665-0.03699-0.36261 0.51937-0.72435 1.2364-3.4317 6.8017-3.3086 6.5811-3.766 6.7523-0.2231 0.08348-0.75488 0.13961-1.3228 0.13961-0.89728 0-0.94584-0.01084-0.88005-0.19649 0.0383-0.10807 1.063-2.2334 2.2771-4.7229 1.2141-2.4895 2.2148-4.5964 2.2237-4.6819 0.01901-0.18193-1.3471-3.061-1.4494-3.0547-0.03809 0.0023-0.39228 0.43156-0.78708 0.9538-0.96807 1.2806-1.0524 1.3168-3.0628 1.3168h-1.5754v11.168l1.6924 1.69h1.4177c0.77974 0 1.4167-0.03338 1.4154-0.07418zm0.48694-18.808c-0.47559-0.25974-0.79116-0.6894-0.94513-1.2868-0.34384-1.3341 0.91879-2.6461 2.2125-2.299 1.0029 0.26913 1.4972 0.95864 1.4316 1.9974-0.04694 0.74408-0.37813 1.297-0.96186 1.6058-0.4364 0.23088-1.2983 0.22226-1.7371-0.01738z" fill="#043343" stroke-width=".10451"/>
 </g>
</svg>
