<svg id="svg" version="1.1" xmlns="http://www.w3.org/2000/svg" xmlns:xlink="http://www.w3.org/1999/xlink" width="400" height="400" viewBox="0, 0, 400,400"><g id="svgg"><path id="path0" d="M76.800 193.600 L 76.800 364.800 217.600 364.800 L 358.400 364.800 358.400 193.600 L 358.400 22.400 217.600 22.400 L 76.800 22.400 76.800 193.600 M313.600 152.166 L 313.600 246.733 323.114 250.050 C 332.062 253.169,345.600 269.983,345.600 277.978 C 345.600 280.191,339.377 281.600,329.600 281.600 L 313.600 281.600 313.600 301.904 C 313.600 318.144,314.881 323.367,320.000 328.000 C 331.366 338.286,327.285 339.200,269.988 339.200 L 213.576 339.200 201.179 328.000 C 190.721 318.552,186.432 316.800,173.763 316.800 L 158.745 316.800 169.600 328.000 L 180.455 339.200 166.380 339.200 C 154.883 339.200,150.372 337.326,141.752 328.972 L 131.200 318.745 131.200 256.972 L 131.200 195.200 151.669 195.200 C 171.064 195.200,172.654 194.611,181.994 183.974 L 191.851 172.747 199.446 187.692 L 207.040 202.636 181.920 255.005 C 152.960 315.381,153.391 313.600,167.738 313.600 C 186.046 313.600,188.430 311.031,210.443 267.587 L 231.718 225.600 234.506 243.200 C 239.900 277.258,236.257 275.200,291.131 275.200 C 343.469 275.200,346.787 273.847,330.946 258.958 C 323.754 252.197,319.084 251.058,294.625 250.099 L 266.557 248.999 263.055 220.561 C 260.119 196.716,255.435 181.714,243.897 159.200 C 237.357 146.440,262.839 159.046,271.390 172.800 C 289.866 202.523,309.100 191.912,292.885 160.941 C 278.428 133.328,274.058 131.200,231.814 131.200 C 191.174 131.200,186.505 133.297,168.136 159.804 C 159.935 171.637,157.880 172.800,145.165 172.800 L 131.200 172.800 131.200 115.200 L 131.200 57.600 222.400 57.600 L 313.600 57.600 313.600 152.166 M183.112 88.181 C 173.961 94.591,173.220 114.892,181.852 122.704 C 188.895 129.078,209.007 129.698,213.989 123.695 C 232.177 101.780,206.258 71.969,183.112 88.181 " stroke="none" fill="#000000" fill-rule="evenodd"></path></g></svg>